HIERARCHY
ROOT Hips
{
 OFFSET 0.000000 0.000000 0.000000
 CHANNELS 6 Xposition Yposition Zposition Yrotation Xrotation Zrotation
 JOINT Chest
 {
  OFFSET 0.000000 9.585900 0.002600
  CHANNELS 3 Yrotation Xrotation Zrotation
  JOINT Chest2
  {
   OFFSET 0.000000 9.601200 -0.005300
   CHANNELS 3 Yrotation Xrotation Zrotation
   JOINT Chest3
   {
    OFFSET 0.000000 9.561800 0.000000
    CHANNELS 3 Yrotation Xrotation Zrotation
    JOINT Chest4
    {
     OFFSET 0.000000 9.552100 0.000000
     CHANNELS 3 Yrotation Xrotation Zrotation
     JOINT Neck
     {
      OFFSET 0.000000 14.453000 0.000000
      CHANNELS 3 Yrotation Xrotation Zrotation
      JOINT Head
      {
       OFFSET 0.000000 8.936500 -0.011300
       CHANNELS 3 Yrotation Xrotation Zrotation
       End Site
       {
        OFFSET 0.000000 17.073600 -0.006000
       }
      }
     }
     JOINT RightCollar
     {
      OFFSET -2.921100 9.558500 0.000000
      CHANNELS 3 Yrotation Xrotation Zrotation
      JOINT RightShoulder
      {
       OFFSET -13.519700 0.000000 0.000000
       CHANNELS 3 Yrotation Xrotation Zrotation
       JOINT RightElbow
       {
        OFFSET 0.000000 -29.696600 0.000000
        CHANNELS 3 Yrotation Xrotation Zrotation
        JOINT RightWrist
        {
         OFFSET 0.000000 -24.004700 0.000000
         CHANNELS 3 Yrotation Xrotation Zrotation
         End Site
         {
          OFFSET 0.000000 -17.728500 0.000000
         }
        }
       }
      }
     }
     JOINT LeftCollar
     {
      OFFSET 2.921100 9.558500 0.000000
      CHANNELS 3 Yrotation Xrotation Zrotation
      JOINT LeftShoulder
      {
       OFFSET 13.519700 0.000000 0.000000
       CHANNELS 3 Yrotation Xrotation Zrotation
       JOINT LeftElbow
       {
        OFFSET 0.000000 -29.696600 0.000000
        CHANNELS 3 Yrotation Xrotation Zrotation
        JOINT LeftWrist
        {
         OFFSET 0.000000 -24.004700 0.000000
         CHANNELS 3 Yrotation Xrotation Zrotation
         End Site
         {
          OFFSET 0.000000 -17.728500 0.000000
         }
        }
       }
      }
     }
    }
   }
  }
 }
 JOINT RightHip
 {
  OFFSET -7.771700 -0.012900 -0.001300
  CHANNELS 3 Yrotation Xrotation Zrotation
  JOINT RightKnee
  {
   OFFSET 0.000000 -40.869800 0.001200
   CHANNELS 3 Yrotation Xrotation Zrotation
   JOINT RightAnkle
   {
    OFFSET 0.000000 -39.717900 0.002100
    CHANNELS 3 Yrotation Xrotation Zrotation
    JOINT RightToe
    {
     OFFSET 0.000000 -4.965400 11.033500
     CHANNELS 3 Yrotation Xrotation Zrotation
     End Site
     {
      OFFSET 0.000000 -1.423100 5.872300
     }
    }
   }
  }
 }
 JOINT LeftHip
 {
  OFFSET 7.771700 -0.012900 -0.001300
  CHANNELS 3 Yrotation Xrotation Zrotation
  JOINT LeftKnee
  {
   OFFSET 0.000000 -40.869800 0.001200
   CHANNELS 3 Yrotation Xrotation Zrotation
   JOINT LeftAnkle
   {
    OFFSET 0.000000 -39.717900 0.002100
    CHANNELS 3 Yrotation Xrotation Zrotation
    JOINT LeftToe
    {
     OFFSET 0.000000 -4.965400 11.033500
     CHANNELS 3 Yrotation Xrotation Zrotation
     End Site
     {
      OFFSET 0.000000 -1.423100 5.872300
     }
    }
   }
  }
 }
}
MOTION
Frames: 16
Frame Time: 0.008333
-13.847018 58.237742 67.141280 166.952861 -45.227251 1.456247 7.102180 25.679619 7.588883 1.040229 4.573611 0.987086 1.647687 7.231225 1.632627 5.650450 21.145597 5.610351 -1.918587 17.018815 -3.370830 -2.423777 -4.162576 -5.496260 -1.586816 2.360730 -2.081428 9.610752 -29.253593 -3.161621 149.953326 -37.040256 -149.312299 24.639768 -18.152583 -52.944100 -3.934283 1.957851 3.422198 18.139556 -17.879408 -13.951849 -143.815938 -27.295625 148.775052 -15.073933 -15.697447 36.816325 14.194680 -27.360398 1.411579 -9.417525 64.748580 -7.892246 3.672395 9.923666 6.363866 -0.143736 0.092870 -0.100093 -5.446187 -30.179014 4.014066 26.812458 58.672705 26.703920 -9.007795 32.151470 -5.563093 0.173711 -8.926368 -2.767332
-13.831486 58.183093 67.168733 167.124929 -45.175719 1.257665 7.070325 25.599834 7.651147 1.017283 4.573392 1.005169 1.649373 7.224338 1.630952 5.684785 21.105620 5.557225 -1.897045 17.075829 -3.284232 -2.362447 -4.073871 -5.410162 -1.578078 2.399011 -1.959795 9.636613 -29.219339 -3.175475 149.998736 -37.039496 -149.365131 24.640455 -18.146731 -52.942764 -4.120579 2.175082 3.383114 18.288178 -17.822166 -13.986912 -143.875550 -27.245928 148.788359 -15.063763 -15.701683 36.795971 14.051257 -27.461604 1.484491 -9.390077 64.752721 -7.872666 3.677180 9.938885 6.408931 -0.164966 0.131705 -0.119327 -5.525170 -30.306478 4.042372 26.953740 58.589703 26.949933 -9.107969 32.439738 -5.495886 0.218258 -9.509952 -2.881930
-13.815882 58.127775 67.199757 167.303575 -45.134948 1.068570 7.056896 25.519467 7.685288 0.990969 4.571850 1.031314 1.652571 7.210497 1.626416 5.704077 21.084921 5.533780 -1.898227 17.121775 -3.186870 -2.273937 -4.000350 -5.352306 -1.568136 2.435433 -1.842227 9.676826 -29.185407 -3.192737 150.046202 -37.038142 -149.422781 24.637687 -18.142383 -52.940806 -4.305742 2.391939 3.339192 18.430384 -17.760663 -14.024933 -143.915476 -27.180803 148.791828 -15.057217 -15.715537 36.782867 13.910129 -27.550175 1.541983 -9.385981 64.760001 -7.869522 3.692623 9.949608 6.454432 -0.189597 0.157843 -0.147098 -5.608766 -30.433075 4.058619 27.092970 58.510378 27.188427 -9.206306 32.741345 -5.415774 0.270468 -10.082072 -3.012014
-13.795306 58.070160 67.237197 167.550762 -45.087312 0.810167 6.930520 25.455167 7.765115 1.063519 4.544460 0.957750 1.651337 7.196528 1.631190 5.707062 21.088965 5.573418 -1.824161 17.154778 -3.155008 -2.309996 -3.969557 -5.255497 -1.523780 2.455102 -1.736360 9.707533 -29.148608 -3.223144 150.091144 -37.033769 -149.476918 24.638333 -18.139527 -52.940844 -4.483619 2.592995 3.269540 18.566642 -17.693981 -14.065646 -143.935146 -27.097524 148.786235 -15.051220 -15.735995 36.775200 13.717090 -27.650422 1.618341 -9.382802 64.764919 -7.859618 3.734478 9.938092 6.512131 -0.245111 0.205946 -0.184230 -5.767315 -30.574192 4.110385 27.202339 58.450114 27.385362 -9.288412 33.082386 -5.316233 0.329219 -10.660685 -3.160240
-13.779073 58.014800 67.274181 167.714210 -45.066245 0.650289 6.879616 25.413500 7.790382 1.066331 4.542580 0.956968 1.666765 7.186783 1.615740 5.719093 21.083733 5.582598 -1.776265 17.179671 -3.112539 -2.321669 -3.946122 -5.179909 -1.529493 2.468842 -1.653055 9.784272 -29.114299 -3.233298 150.128257 -37.025198 -149.522693 24.646994 -18.138175 -52.939012 -4.663529 2.788313 3.194968 18.696651 -17.620825 -14.105723 -143.936095 -27.001395 148.775124 -15.046650 -15.759554 36.772068 13.587413 -27.716044 1.662284 -9.382400 64.775221 -7.857713 3.748765 9.931448 6.540792 -0.264065 0.268894 -0.192715 -5.858009 -30.695967 4.123498 27.270197 58.410582 27.529859 -9.316423 33.400481 -5.175411 0.372927 -11.180106 -3.331395
-13.763473 57.963923 67.308573 167.792248 -45.089122 0.567429 6.925237 25.410041 7.786711 1.032122 4.546417 0.993302 1.662142 7.184576 1.623471 5.744127 21.079115 5.564070 -1.743195 17.195724 -3.064167 -2.272130 -3.904524 -5.102726 -1.457190 2.495265 -1.563374 9.790122 -29.086873 -3.254025 150.151458 -37.009234 -149.561160 24.655339 -18.137669 -52.931259 -4.841772 2.978006 3.116414 18.817296 -17.544877 -14.143892 -143.926208 -26.903772 148.759204 -15.044848 -15.780638 36.773076 13.542036 -27.739484 1.686892 -9.395190 64.792801 -7.847137 3.758393 9.920520 6.556627 -0.280273 0.336578 -0.190518 -5.897348 -30.753361 4.127168 27.296435 58.389575 27.611174 -9.310257 33.644708 -5.016484 0.415877 -11.611118 -3.511172
-13.745802 57.924450 67.333309 167.735053 -45.210941 0.586517 7.023650 25.521282 7.809875 1.037080 4.545433 0.991578 1.636420 7.183673 1.652805 5.786518 21.078540 5.520800 -1.727170 17.202836 -3.008500 -2.150249 -3.854368 -5.008769 -1.469908 2.501239 -1.486754 9.871702 -29.035694 -3.260978 150.104142 -36.960508 -149.569533 24.607771 -18.142454 -52.911868 -5.019225 3.162691 3.037602 18.925603 -17.471144 -14.184271 -143.917267 -26.817370 148.737705 -15.045384 -15.794563 36.776390 13.563665 -27.661399 1.742387 -9.385745 64.802083 -7.839259 3.776967 9.934981 6.592716 -0.303527 0.423274 -0.184484 -5.855276 -30.666065 4.130866 27.297975 58.383880 27.631915 -9.268808 33.744960 -4.823919 0.451944 -11.907123 -3.702782
-13.726743 57.870529 67.374028 167.819529 -45.211346 0.479627 7.031752 25.511239 7.844903 1.042952 4.544920 0.989969 1.641199 7.177633 1.651777 5.817421 21.079463 5.515478 -1.700610 17.209323 -2.957785 -2.096296 -3.835941 -4.915319 -1.446409 2.523270 -1.413129 9.902567 -28.991542 -3.255030 150.133505 -36.945725 -149.605810 24.652598 -18.135947 -52.912660 -5.199143 3.341307 2.963584 19.021827 -17.403622 -14.227687 -143.916394 -26.753191 148.714670 -15.047230 -15.802811 36.777690 13.481867 -27.707291 1.801521 -9.376911 64.792526 -7.846450 3.808464 9.976202 6.654512 -0.341157 0.458866 -0.209754 -5.925771 -30.769701 4.164149 27.305584 58.372238 27.706112 -9.301381 34.095747 -4.670454 0.493311 -12.359863 -3.909671
-13.711209 57.818241 67.413126 167.907363 -45.218968 0.393214 7.032411 25.512753 7.856433 1.023449 4.542494 1.008270 1.667860 7.177182 1.630692 5.852339 21.080343 5.507247 -1.677284 17.211672 -2.902319 -2.067462 -3.828069 -4.824482 -1.425445 2.548898 -1.340706 9.916761 -28.942737 -3.232362 150.156964 -36.936661 -149.634460 24.708948 -18.131075 -52.920698 -5.381831 3.513898 2.894917 19.109392 -17.347045 -14.271251 -143.926744 -26.713630 148.692399 -15.046990 -15.804842 36.774335 13.417060 -27.735739 1.832224 -9.401632 64.793301 -7.870479 3.829467 9.960357 6.679986 -0.363905 0.527450 -0.213377 -6.001198 -30.865040 4.174742 27.296240 58.360821 27.753950 -9.337664 34.462523 -4.502753 0.532753 -12.800607 -4.136230
-13.695829 57.755698 67.463272 168.165871 -45.128519 0.171338 6.904328 25.414962 7.875789 1.013813 4.542337 1.015933 1.746090 7.187594 1.570994 5.822480 21.059379 5.576079 -1.635392 17.223510 -2.891296 -2.043755 -3.823646 -4.725842 -1.387354 2.578855 -1.310771 9.927378 -28.878929 -3.196058 150.153262 -36.917455 -149.650686 24.734525 -18.128540 -52.918450 -5.540010 3.685642 2.784629 19.194674 -17.302050 -14.316643 -143.947418 -26.691355 148.666703 -15.044903 -15.797285 36.771652 13.230551 -27.862455 1.857626 -9.429634 64.792017 -7.904580 3.858571 9.960768 6.717823 -0.391439 0.560940 -0.234223 -6.236331 -31.113303 4.202640 27.288400 58.346409 27.840786 -9.411158 35.029838 -4.393418 0.575694 -13.369251 -4.365408
-13.682600 57.709467 67.497087 168.235945 -45.157667 0.112819 6.874616 25.441629 7.886164 1.056398 4.545637 0.986627 1.775905 7.192098 1.554008 5.861932 21.058277 5.567321 -1.607672 17.226317 -2.816086 -2.078958 -3.833983 -4.633472 -1.395333 2.595633 -1.212209 9.924368 -28.806263 -3.144573 150.145754 -36.902951 -149.662128 24.749200 -18.127763 -52.912544 -5.746777 3.839230 2.745642 19.277033 -17.268388 -14.365329 -143.972251 -26.678698 148.636553 -15.041812 -15.782302 36.769343 13.176204 -27.867626 1.884097 -9.469314 64.793643 -7.954622 3.877191 9.987498 6.764811 -0.404324 0.595085 -0.252100 -6.306794 -31.155545 4.196582 27.216332 58.311718 27.830214 -9.475553 35.377892 -4.295858 0.634741 -13.756441 -4.563641
-13.662645 57.663385 67.532952 168.388464 -45.166605 -0.049954 6.852362 25.439670 7.935011 1.063633 4.547579 0.984404 1.757363 7.188457 1.573498 5.934125 21.071018 5.508740 -1.624650 17.211827 -2.706496 -2.068608 -3.831405 -4.580272 -1.405232 2.611437 -1.107905 9.916990 -28.726809 -3.081942 150.131236 -36.895398 -149.666026 24.759837 -18.124145 -52.908283 -5.950545 3.983202 2.710929 19.344106 -17.246431 -14.412621 -143.994283 -26.671212 148.601915 -15.035794 -15.765869 36.766704 13.040898 -27.893559 1.963542 -9.522406 64.787597 -8.021942 3.934502 9.953401 6.827207 -0.464950 0.714401 -0.264908 -6.486502 -31.239279 4.250058 27.222443 58.323211 27.878398 -9.488820 35.724441 -4.178549 0.655738 -14.156678 -4.745515
-13.648472 57.621553 67.564308 168.482741 -45.186421 -0.136802 6.920263 25.437857 7.932080 1.019978 4.550894 1.022015 1.735153 7.188071 1.595770 5.985771 21.079662 5.464459 -1.590764 17.216889 -2.650871 -2.015153 -3.820642 -4.408810 -1.433535 2.612414 -1.014218 9.949282 -28.621112 -3.024410 150.110209 -36.895978 -149.663848 24.770018 -18.114556 -52.907465 -6.132046 4.123397 2.653628 19.391584 -17.235183 -14.456982 -144.009510 -26.666209 148.561403 -15.028418 -15.755428 36.768191 12.961496 -27.898069 2.001086 -9.557087 64.783198 -8.067383 3.954417 9.958196 6.864239 -0.482384 0.753138 -0.279008 -6.608852 -31.305778 4.265036 27.220241 58.334700 27.910873 -9.471011 36.006337 -4.066110 0.661001 -14.485336 -4.905426
-13.634279 57.588788 67.587666 168.506319 -45.255709 -0.169349 6.975139 25.492986 7.944567 1.026456 4.556514 1.018835 1.746453 7.191395 1.590955 6.021344 21.078856 5.449589 -1.560945 17.219076 -2.593838 -2.033083 -3.827454 -4.290450 -1.464057 2.615330 -0.918240 9.979871 -28.518483 -2.967723 150.090017 -36.909748 -149.658508 24.782492 -18.100178 -52.908894 -6.310561 4.254373 2.599136 19.422439 -17.231658 -14.497948 -144.002965 -26.662501 148.515066 -15.013541 -15.756844 36.770396 12.928451 -27.849745 2.063851 -9.622457 64.778486 -8.156257 3.950840 9.953252 6.887366 -0.479888 0.806139 -0.270611 -6.670922 -31.298699 4.273370 27.251577 58.352661 27.951830 -9.429259 36.174809 -3.918228 0.645556 -14.722065 -5.059152
-13.626265 57.554010 67.613154 168.579411 -45.279798 -0.209140 6.977107 25.504627 7.921597 1.080506 4.558422 0.982111 1.720470 7.195754 1.620554 6.052647 21.080869 5.436973 -1.557517 17.210463 -2.517402 -1.999285 -3.835744 -4.171890 -1.460067 2.638927 -0.835562 9.969268 -28.445963 -2.903665 150.066272 -36.940490 -149.645146 24.798315 -18.086517 -52.909938 -6.481979 4.371056 2.544770 19.432728 -17.230322 -14.531529 -143.972127 -26.662993 148.463794 -14.989413 -15.767429 36.769203 12.883277 -27.840605 2.069244 -9.658509 64.782592 -8.201242 3.941257 9.948556 6.900064 -0.475154 0.863845 -0.257886 -6.755697 -31.328130 4.252794 27.160690 58.335890 27.898826 -9.429528 36.439638 -3.866780 0.672217 -14.999067 -5.182733
-13.619607 57.523476 67.635552 168.629521 -45.311205 -0.226923 6.991173 25.522645 7.895402 1.102833 4.562026 0.967850 1.721241 7.200868 1.622275 6.083788 21.086632 5.427196 -1.578807 17.192124 -2.422507 -1.943586 -3.851956 -4.085806 -1.462750 2.660020 -0.758215 9.971559 -28.382066 -2.847024 150.027981 -36.984089 -149.616483 24.813497 -18.075161 -52.908597 -6.641476 4.465692 2.490077 19.416301 -17.226192 -14.553672 -143.941777 -26.678201 148.411183 -14.969792 -15.779920 36.765508 12.856946 -27.822518 2.072527 -9.700591 64.781277 -8.261706 3.947436 9.969169 6.936053 -0.476951 0.891250 -0.260225 -6.809472 -31.334523 4.225042 27.041820 58.308968 27.818515 -9.442308 36.682249 -3.829788 0.705825 -15.244380 -5.294656
